<svg xmlns="http://www.w3.org/2000/svg" width="70.595" height="55.153" viewBox="0 0 70.595 55.153">
  <path id="Icon_metro-automobile" data-name="Icon metro-automobile" d="M19.117,40.8A5.531,5.531,0,0,0,13.6,35.285a5.509,5.509,0,0,0-3.9,9.41,5.311,5.311,0,0,0,3.9,1.62A5.531,5.531,0,0,0,19.117,40.8ZM20.358,29.77H55.38L52.312,17.464a1.257,1.257,0,0,0-.483-.6,1.242,1.242,0,0,0-.724-.327H24.632a1.242,1.242,0,0,0-.724.327,1.257,1.257,0,0,0-.483.6ZM67.651,40.8a5.531,5.531,0,1,0-1.62,3.9A5.311,5.311,0,0,0,67.651,40.8Zm5.515-3.309V50.728a1.062,1.062,0,0,1-1.1,1.1H68.755v4.412a6.618,6.618,0,1,1-13.237,0V51.831H20.22v4.412A6.591,6.591,0,0,1,13.6,62.861a6.591,6.591,0,0,1-6.618-6.618V51.831H3.675a1.062,1.062,0,0,1-1.1-1.1V37.491a7.442,7.442,0,0,1,2.258-5.464,7.442,7.442,0,0,1,5.464-2.258h.965l3.619-14.443A9.694,9.694,0,0,1,18.462,9.9a9.768,9.768,0,0,1,6.17-2.189H51.106a10.276,10.276,0,0,1,9.755,7.618L64.48,29.77h.965a7.709,7.709,0,0,1,7.721,7.721Z" transform="translate(-2.571 -7.708)" fill="#fff"/>
</svg>
